<svg width="100" height="100" viewBox="0 0 100 100" fill="none" xmlns="http://www.w3.org/2000/svg">
<g clip-path="url(#clip0_80_581)">
<path fill-rule="evenodd" clip-rule="evenodd" d="M89.7749 21.2959C90.9466 22.4679 91.6049 24.0573 91.6049 25.7146C91.6049 27.3719 90.9466 28.9613 89.7749 30.1334L42.9291 76.9792C42.31 77.5984 41.575 78.0896 40.7661 78.4247C39.9572 78.7599 39.0901 78.9324 38.2145 78.9324C37.3389 78.9324 36.4719 78.7599 35.663 78.4247C34.854 78.0896 34.119 77.5984 33.4999 76.9792L10.2249 53.7084C9.62801 53.1318 9.15187 52.4422 8.82431 51.6796C8.49676 50.9171 8.32434 50.097 8.31713 49.2671C8.30992 48.4372 8.46806 47.6143 8.78231 46.8462C9.09657 46.078 9.56065 45.3802 10.1475 44.7934C10.7343 44.2066 11.4321 43.7425 12.2002 43.4282C12.9683 43.114 13.7913 42.9558 14.6212 42.963C15.4511 42.9703 16.2712 43.1427 17.0337 43.4702C17.7962 43.7978 18.4859 44.2739 19.0624 44.8709L38.2124 64.0209L80.9333 21.2959C81.5137 20.7151 82.2029 20.2543 82.9614 19.94C83.72 19.6257 84.533 19.4639 85.3541 19.4639C86.1752 19.4639 86.9883 19.6257 87.7468 19.94C88.5054 20.2543 89.1945 20.7151 89.7749 21.2959Z" fill="black"/>
</g>
<defs>
<clipPath id="clip0_80_581">
<rect width="100" height="100" fill="white"/>
</clipPath>
</defs>
</svg>
