<svg width="46" height="44" viewBox="0 0 46 44" fill="none" xmlns="http://www.w3.org/2000/svg">
<path fill-rule="evenodd" clip-rule="evenodd" d="M20.1775 1.13479C20.9707 0.402533 21.9812 0 23.0262 0C24.0711 0 25.0816 0.402533 25.8748 1.13479L39.7374 13.923L45.1787 18.6096C45.4031 18.8029 45.5899 19.0419 45.7285 19.3129C45.8671 19.584 45.9548 19.8817 45.9865 20.1892C46.0182 20.4967 45.9933 20.8079 45.9132 21.105C45.8332 21.4021 45.6996 21.6794 45.52 21.9209C45.3405 22.1625 45.1184 22.3636 44.8667 22.5128C44.6149 22.6619 44.3383 22.7563 44.0526 22.7904C43.767 22.8245 43.4779 22.7977 43.2018 22.7116C42.9258 22.6254 42.6682 22.4816 42.4438 22.2883L40.5294 20.6397V39.2898C40.5294 40.539 40.0684 41.7371 39.2478 42.6204C38.4271 43.5037 37.3141 44 36.1536 44H27.402V32.2245C27.402 30.9753 26.9409 29.7772 26.1203 28.8939C25.2997 28.0105 24.1867 27.5143 23.0262 27.5143C21.8656 27.5143 20.7526 28.0105 19.932 28.8939C19.1114 29.7772 18.6503 30.9753 18.6503 32.2245V44H9.89871C8.73817 44 7.62517 43.5037 6.80454 42.6204C5.98392 41.7371 5.5229 40.539 5.5229 39.2898V20.6374L3.60848 22.286C3.38561 22.4908 3.12677 22.6454 2.84734 22.7405C2.5679 22.8356 2.27356 22.8693 1.9818 22.8396C1.69003 22.8099 1.40677 22.7174 1.14885 22.5676C0.890922 22.4179 0.663582 22.2138 0.480324 21.9676C0.297065 21.7214 0.161623 21.4381 0.0820363 21.1345C0.00244956 20.8309 -0.0196592 20.5132 0.017022 20.2002C0.0537033 19.8872 0.148427 19.5854 0.29557 19.3125C0.442714 19.0397 0.639278 18.8015 0.873596 18.612L6.31492 13.9254L20.1775 1.13479Z" fill="#312121"/>
</svg>
