<svg width="29" height="43" viewBox="0 0 29 43" fill="none" xmlns="http://www.w3.org/2000/svg">
<mask id="mask0_78_576" style="mask-type:luminance" maskUnits="userSpaceOnUse" x="0" y="0" width="29" height="43">
<path d="M13.6591 18.5159C13.7364 18.3589 13.8562 18.2267 14.0048 18.1343C14.1535 18.0418 14.325 17.9928 14.5 17.9928C14.675 17.9928 14.8466 18.0418 14.9952 18.1343C15.1438 18.2267 15.2636 18.3589 15.3409 18.5159L18.1394 24.1859C18.2066 24.3224 18.3059 24.4405 18.4289 24.53C18.5519 24.6195 18.6948 24.6777 18.8453 24.6997L25.1031 25.6091C25.2761 25.6343 25.4386 25.7075 25.5722 25.8202C25.7057 25.9329 25.8052 26.0808 25.8592 26.247C25.9132 26.4132 25.9197 26.5913 25.8778 26.761C25.836 26.9307 25.7476 27.0854 25.6225 27.2075L21.0944 31.6213C20.9855 31.7273 20.904 31.8582 20.857 32.0028C20.8099 32.1473 20.7988 32.3011 20.8244 32.4509L21.8931 38.6834C21.9226 38.8557 21.9032 39.0328 21.8373 39.1947C21.7714 39.3566 21.6616 39.4968 21.5202 39.5995C21.3789 39.7023 21.2116 39.7635 21.0373 39.7762C20.863 39.789 20.6886 39.7527 20.5338 39.6716L14.9369 36.7297C14.8023 36.6589 14.6525 36.6219 14.5005 36.6219C14.3484 36.6219 14.1987 36.6589 14.0641 36.7297L8.4672 39.6716C8.31235 39.7532 8.13772 39.7899 7.9631 39.7774C7.78848 39.7649 7.62084 39.7038 7.47916 39.601C7.33749 39.4981 7.22744 39.3577 7.16148 39.1955C7.09552 39.0334 7.07628 38.856 7.10595 38.6834L8.1747 32.4509C8.20044 32.3012 8.1894 32.1474 8.14253 32.0029C8.09566 31.8584 8.01436 31.7274 7.90564 31.6213L3.37751 27.2075C3.25217 27.0854 3.16349 26.9307 3.1215 26.7608C3.07952 26.591 3.08591 26.4128 3.13995 26.2463C3.19399 26.0799 3.29353 25.9319 3.4273 25.8192C3.56107 25.7064 3.72373 25.6333 3.89689 25.6081L10.1547 24.6988C10.3051 24.6769 10.448 24.6188 10.571 24.5295C10.6939 24.4401 10.7934 24.3222 10.8606 24.1859L13.6591 18.5159ZM25.75 2.75H3.25001V12.125L14.5 16.8125L25.75 12.125V2.75Z" fill="#E9ED2A" stroke="white" stroke-width="5.25" stroke-linecap="round" stroke-linejoin="round"/>
</mask>
<g mask="url(#mask0_78_576)">
<path d="M-8 -1H37V44H-8V-1Z" fill="white"/>
</g>
</svg>
