<svg width="45" height="45" viewBox="0 0 45 45" fill="none" xmlns="http://www.w3.org/2000/svg">
<mask id="mask0_46_254" style="mask-type:luminance" maskUnits="userSpaceOnUse" x="8" y="1" width="29" height="43">
<path d="M21.6591 19.5159C21.7364 19.3589 21.8562 19.2267 22.0048 19.1343C22.1535 19.0418 22.325 18.9928 22.5 18.9928C22.675 18.9928 22.8466 19.0418 22.9952 19.1343C23.1438 19.2267 23.2636 19.3589 23.3409 19.5159L26.1394 25.1859C26.2066 25.3224 26.3059 25.4405 26.4289 25.53C26.5519 25.6195 26.6948 25.6777 26.8453 25.6997L33.1031 26.6091C33.2761 26.6343 33.4386 26.7075 33.5722 26.8202C33.7057 26.9329 33.8052 27.0808 33.8592 27.247C33.9132 27.4132 33.9197 27.5913 33.8778 27.761C33.836 27.9307 33.7476 28.0854 33.6225 28.2075L29.0944 32.6213C28.9855 32.7273 28.904 32.8582 28.857 33.0028C28.8099 33.1473 28.7988 33.3011 28.8244 33.4509L29.8931 39.6834C29.9226 39.8557 29.9032 40.0328 29.8373 40.1947C29.7714 40.3566 29.6616 40.4968 29.5202 40.5995C29.3789 40.7023 29.2116 40.7635 29.0373 40.7762C28.863 40.789 28.6886 40.7527 28.5338 40.6716L22.9369 37.7297C22.8023 37.6589 22.6525 37.6219 22.5005 37.6219C22.3484 37.6219 22.1987 37.6589 22.0641 37.7297L16.4672 40.6716C16.3123 40.7532 16.1377 40.7899 15.9631 40.7774C15.7885 40.765 15.6208 40.7038 15.4792 40.601C15.3375 40.4982 15.2274 40.3577 15.1615 40.1955C15.0955 40.0334 15.0763 39.856 15.106 39.6834L16.1747 33.4509C16.2004 33.3012 16.1894 33.1474 16.1425 33.0029C16.0957 32.8584 16.0144 32.7274 15.9056 32.6213L11.3775 28.2075C11.2522 28.0854 11.1635 27.9307 11.1215 27.7608C11.0795 27.591 11.0859 27.4128 11.14 27.2463C11.194 27.0799 11.2935 26.9319 11.4273 26.8192C11.5611 26.7064 11.7237 26.6333 11.8969 26.6081L18.1547 25.6988C18.3051 25.6769 18.448 25.6188 18.571 25.5295C18.6939 25.4401 18.7934 25.3222 18.8606 25.1859L21.6591 19.5159ZM33.75 3.75H11.25V13.125L22.5 17.8125L33.75 13.125V3.75Z" fill="white" stroke="white" stroke-width="5.25" stroke-linecap="round" stroke-linejoin="round"/>
</mask>
<g mask="url(#mask0_46_254)">
<path d="M0 0H45V45H0V0Z" fill="white"/>
</g>
</svg>
