<svg width="27" height="27" viewBox="0 0 27 27" fill="none" xmlns="http://www.w3.org/2000/svg">
<path d="M15.4535 24.5791C16.9085 24.3225 18.2986 23.7819 19.5446 22.9882C20.7906 22.1944 21.8681 21.1629 22.7155 19.9527C23.5628 18.7425 24.1636 17.3773 24.4833 15.9349C24.8031 14.4926 24.8356 13.0014 24.5791 11.5465C24.3225 10.0915 23.7819 8.70138 22.9882 7.45538C22.1944 6.20938 21.1629 5.13192 19.9527 4.28454C18.7425 3.43715 17.3773 2.83643 15.9349 2.51667C14.4926 2.19691 13.0014 2.16437 11.5465 2.42091C10.0915 2.67746 8.70138 3.21806 7.45538 4.01185C6.20938 4.80564 5.13192 5.83708 4.28454 7.04727C3.43715 8.25746 2.83643 9.62271 2.51667 11.0651C2.19691 12.5074 2.16437 13.9986 2.42091 15.4535C2.67746 16.9085 3.21806 18.2986 4.01185 19.5446C4.80564 20.7906 5.83708 21.8681 7.04727 22.7155C8.25746 23.5628 9.62271 24.1636 11.0651 24.4833C12.5074 24.8031 13.9986 24.8356 15.4535 24.5791L15.4535 24.5791Z" stroke="#333333" stroke-width="2"/>
<path d="M13.5 13.5L13.5 20.25" stroke="#333333" stroke-width="2" stroke-linecap="square"/>
<path d="M13.5 7.875L13.5 6.75" stroke="#333333" stroke-width="2" stroke-linecap="square"/>
</svg>
