<svg width="39" height="44" viewBox="0 0 39 44" fill="none" xmlns="http://www.w3.org/2000/svg">
<path fill-rule="evenodd" clip-rule="evenodd" d="M18.2684 0.369767C18.7135 0.0678594 19.2528 -0.0556071 19.7822 0.0232138C20.3116 0.102035 20.7934 0.377551 21.1347 0.796547C22.1471 2.03949 25.141 5.04235 28.5913 6.70768C31.7157 8.39234 34.3298 10.9108 36.1527 13.9925C37.9756 17.0742 38.9386 20.6027 38.9381 24.1991C38.9383 27.4235 38.1643 30.5992 36.6831 33.4501C35.2019 36.301 33.0585 38.7409 30.4391 40.5578C27.8197 42.3746 24.8036 43.5133 21.653 43.875C18.5023 44.2367 15.3125 43.8104 12.3608 42.6332C9.40902 41.4559 6.78465 39.5634 4.71578 37.12C2.6469 34.6766 1.19614 31.7564 0.489574 28.613C-0.216989 25.4697 -0.157968 22.1985 0.66151 19.0837C1.48099 15.9688 3.03612 13.1046 5.19174 10.7401C5.43422 10.4742 5.73757 10.2734 6.07481 10.1555C6.41205 10.0376 6.77272 10.0064 7.12471 10.0645C7.4767 10.1226 7.8091 10.2683 8.09233 10.4887C8.37555 10.709 8.60082 10.9972 8.74808 11.3275C9.02281 11.9478 9.76696 12.786 10.894 13.6726L11.0736 13.8134C11.5062 10.7115 12.4407 8.11121 13.5504 6.03011C15.0344 3.24064 16.8602 1.32452 18.2684 0.369767ZM19.2981 18.0064C19.7529 17.6779 20.3148 17.5407 20.8666 17.6235C21.4185 17.7063 21.9175 18.0027 22.2596 18.4507C22.3504 18.5695 22.6014 18.8599 22.9583 19.1855C23.3281 19.532 23.743 19.8251 24.1913 20.0567C26.5709 21.4492 28.1219 24.1265 28.1219 27.1315C28.1219 31.4522 24.8619 35.1986 20.5506 35.1986C16.2393 35.1986 12.9794 31.4522 12.9794 27.1315C12.9794 25.057 13.717 23.1453 14.9522 21.7C15.2135 21.3949 15.5525 21.169 15.9318 21.0471C16.3112 20.9253 16.7162 20.9122 17.1025 21.0092C17.1868 20.8068 17.2755 20.6132 17.3664 20.4285C17.9137 19.3329 18.6254 18.4925 19.2981 18.0064Z" fill="#312121"/>
</svg>
