<svg width="31" height="30" viewBox="0 0 31 30" fill="none" xmlns="http://www.w3.org/2000/svg">
<path d="M23.25 3.75001V3.75001C24.0634 3.75001 24.4701 3.75001 24.8062 3.82838C25.9186 4.08776 26.7872 4.95636 27.0466 6.06878C27.125 6.40489 27.125 6.8116 27.125 7.62501L27.125 10.25C27.125 10.7214 27.125 10.9571 26.9785 11.1036C26.8321 11.25 26.5964 11.25 26.125 11.25L19.375 11.25M23.25 3.75001V3.75001C22.4366 3.75001 22.0299 3.75001 21.6938 3.82838C20.5813 4.08776 19.7127 4.95636 19.4534 6.06878C19.375 6.40489 19.375 6.8116 19.375 7.62501L19.375 11.25M23.25 3.75001L7.875 3.75001C5.98938 3.75001 5.04657 3.75001 4.46079 4.3358C3.875 4.92158 3.875 5.86439 3.875 7.75001L3.875 26.25L7.75 25L11.625 26.25L15.5 25L19.375 26.25L19.375 11.25" stroke="#333333" stroke-width="2"/>
<path d="M9.04166 8.75L14.2083 8.75" stroke="#333333" stroke-width="2" stroke-linecap="round"/>
<path d="M10.3333 13.75H9.04168" stroke="#333333" stroke-width="2" stroke-linecap="round"/>
<path d="M9.04166 18.75L12.9167 18.75" stroke="#333333" stroke-width="2" stroke-linecap="round"/>
</svg>
