<svg width="40" height="40" viewBox="0 0 40 40" fill="none" xmlns="http://www.w3.org/2000/svg">
<path fill-rule="evenodd" clip-rule="evenodd" d="M6.40001 34.664C4.3788 32.7939 2.7667 30.5256 1.66524 28.0018C0.563768 25.4781 -0.00320739 22.7536 1.36475e-05 20C1.36475e-05 8.95399 8.95401 0 20 0C31.046 0 40 8.95399 40 20C40.0032 22.7536 39.4362 25.4781 38.3348 28.0018C37.2333 30.5256 35.6212 32.7939 33.6 34.664C33.1254 32.7365 32.2471 30.9317 31.0231 29.3689C29.7992 27.806 28.2575 26.5208 26.5 25.598C28.0529 24.269 29.1613 22.4962 29.6759 20.5181C30.1905 18.54 30.0866 16.4518 29.3782 14.5345C28.6698 12.6173 27.391 10.9632 25.7138 9.79493C24.0367 8.62667 22.0419 8.00036 19.998 8.00036C17.9541 8.00036 15.9593 8.62667 14.2822 9.79493C12.605 10.9632 11.3262 12.6173 10.6178 14.5345C9.90943 16.4518 9.80554 18.54 10.3201 20.5181C10.8347 22.4962 11.9431 24.269 13.496 25.598C11.7392 26.5212 10.1983 27.8067 8.9751 29.3695C7.75188 30.9323 6.87419 32.7369 6.40001 34.664ZM10.02 37.336C13.0543 39.0866 16.4969 40.0055 20 40C23.634 40 27.04 39.03 29.98 37.336C29.8193 34.7983 28.6979 32.4172 26.8439 30.677C24.99 28.9368 22.5427 27.9681 20 27.9681C17.4573 27.9681 15.01 28.9368 13.1561 30.677C11.3021 32.4172 10.1807 34.7983 10.02 37.336ZM20 12C19.2121 12 18.4319 12.1552 17.7039 12.4567C16.9759 12.7582 16.3145 13.2002 15.7574 13.7573C15.2002 14.3145 14.7583 14.9759 14.4567 15.7039C14.1552 16.4318 14 17.2121 14 18C14 18.7879 14.1552 19.5681 14.4567 20.2961C14.7583 21.024 15.2002 21.6855 15.7574 22.2426C16.3145 22.7998 16.9759 23.2417 17.7039 23.5433C18.4319 23.8448 19.2121 24 20 24C21.5913 24 23.1174 23.3678 24.2426 22.2426C25.3679 21.1174 26 19.5913 26 18C26 16.4087 25.3679 14.8826 24.2426 13.7573C23.1174 12.6321 21.5913 12 20 12Z" fill="#312121"/>
</svg>
