<svg width="50" height="50" viewBox="0 0 50 50" fill="none" xmlns="http://www.w3.org/2000/svg">
<path d="M41.5271 27.1687C41.1337 30.1686 39.9311 33.0049 38.0483 35.3732C36.1654 37.7416 33.6734 39.5528 30.8395 40.6125C28.0056 41.6723 24.9366 41.9406 21.9618 41.3887C18.9869 40.8368 16.2185 39.4855 13.9532 37.4798C11.688 35.4741 10.0115 32.8895 9.10348 30.0034C8.19548 27.1173 8.09024 24.0384 8.79907 21.097C9.50789 18.1556 11.004 15.4627 13.127 13.307C15.25 11.1513 17.9198 9.61412 20.85 8.8604C28.9729 6.77706 37.3812 10.9583 40.4854 18.75" stroke="white" stroke-width="4.16667" stroke-linecap="round" stroke-linejoin="round"/>
<path d="M41.6667 8.33325V18.7499H31.25" stroke="white" stroke-width="4.16667" stroke-linecap="round" stroke-linejoin="round"/>
</svg>
