<svg width="29" height="30" viewBox="0 0 29 30" fill="none" xmlns="http://www.w3.org/2000/svg">
<path d="M8.45834 8.91492V7.13458C8.45834 4.97922 8.45834 3.90155 9.15159 3.30322C9.84483 2.7049 10.9109 2.86245 13.0431 3.17755L20.2522 4.24293C22.6955 4.60402 23.9172 4.78456 24.6461 5.6291C25.375 6.47364 25.375 7.70858 25.375 10.1785V19.8215C25.375 22.2914 25.375 23.5264 24.6461 24.3709C23.9172 25.2154 22.6955 25.396 20.2522 25.7571L13.0431 26.8224C10.9109 27.1375 9.84483 27.2951 9.15159 26.6968C8.45834 26.0985 8.45834 25.0208 8.45834 22.8654V21.3325" stroke="#333333" stroke-width="2"/>
<path d="M19.3333 15L20.1244 14.3883L20.5975 15L20.1244 15.6117L19.3333 15ZM4.83334 16C4.28106 16 3.83334 15.5523 3.83334 15C3.83334 14.4477 4.28106 14 4.83334 14V16ZM15.2911 8.13825L20.1244 14.3883L18.5423 15.6117L13.709 9.36175L15.2911 8.13825ZM20.1244 15.6117L15.2911 21.8617L13.709 20.6383L18.5423 14.3883L20.1244 15.6117ZM19.3333 16H4.83334V14H19.3333V16Z" fill="#333333"/>
</svg>
