<svg width="41" height="40" viewBox="0 0 41 40" fill="none" xmlns="http://www.w3.org/2000/svg">
<path fill-rule="evenodd" clip-rule="evenodd" d="M0 6.66667C0 4.89856 0.719939 3.20286 2.00144 1.95262C3.28294 0.702379 5.02102 0 6.83333 0H34.1667C35.979 0 37.7171 0.702379 38.9986 1.95262C40.2801 3.20286 41 4.89856 41 6.66667V33.3333C41 35.1014 40.2801 36.7971 38.9986 38.0474C37.7171 39.2976 35.979 40 34.1667 40H6.83333C5.02102 40 3.28294 39.2976 2.00144 38.0474C0.719939 36.7971 0 35.1014 0 33.3333V6.66667ZM22.7778 11.1111C22.7778 10.5217 22.5378 9.95651 22.1106 9.53976C21.6835 9.12302 21.1041 8.88889 20.5 8.88889C19.8959 8.88889 19.3165 9.12302 18.8894 9.53976C18.4622 9.95651 18.2222 10.5217 18.2222 11.1111V28.8889C18.2222 29.4783 18.4622 30.0435 18.8894 30.4602C19.3165 30.877 19.8959 31.1111 20.5 31.1111C21.1041 31.1111 21.6835 30.877 22.1106 30.4602C22.5378 30.0435 22.7778 29.4783 22.7778 28.8889V11.1111ZM13.6667 17.7778C13.6667 17.1884 13.4267 16.6232 12.9995 16.2064C12.5724 15.7897 11.993 15.5556 11.3889 15.5556C10.7848 15.5556 10.2054 15.7897 9.77826 16.2064C9.35109 16.6232 9.11111 17.1884 9.11111 17.7778V28.8889C9.11111 29.4783 9.35109 30.0435 9.77826 30.4602C10.2054 30.877 10.7848 31.1111 11.3889 31.1111C11.993 31.1111 12.5724 30.877 12.9995 30.4602C13.4267 30.0435 13.6667 29.4783 13.6667 28.8889V17.7778ZM31.8889 24.4444C31.8889 23.8551 31.6489 23.2898 31.2217 22.8731C30.7946 22.4564 30.2152 22.2222 29.6111 22.2222C29.007 22.2222 28.4276 22.4564 28.0005 22.8731C27.5733 23.2898 27.3333 23.8551 27.3333 24.4444V28.8889C27.3333 29.4783 27.5733 30.0435 28.0005 30.4602C28.4276 30.877 29.007 31.1111 29.6111 31.1111C30.2152 31.1111 30.7946 30.877 31.2217 30.4602C31.6489 30.0435 31.8889 29.4783 31.8889 28.8889V24.4444Z" fill="#312121"/>
</svg>
