<svg width="40" height="44" viewBox="0 0 40 44" fill="none" xmlns="http://www.w3.org/2000/svg">
<path fill-rule="evenodd" clip-rule="evenodd" d="M15.4 4.4C14.8165 4.4 14.2569 4.63179 13.8444 5.04437C13.4318 5.45695 13.2 6.01652 13.2 6.6C13.2 7.18348 13.4318 7.74306 13.8444 8.15563C14.2569 8.56822 14.8165 8.8 15.4 8.8H24.2C24.7835 8.8 25.3431 8.56822 25.7556 8.15563C26.1682 7.74306 26.4 7.18348 26.4 6.6C26.4 6.01652 26.1682 5.45695 25.7556 5.04437C25.3431 4.63179 24.7835 4.4 24.2 4.4H15.4ZM15.4 2.74924e-07C14.0346 -0.000393642 12.7027 0.42253 11.5877 1.21053C10.4727 1.99853 9.62942 3.11284 9.174 4.4H6.6C4.84957 4.4 3.17084 5.09536 1.9331 6.3331C0.695355 7.57084 0 9.24957 0 11V37.4C0 39.1504 0.695355 40.8292 1.9331 42.0669C3.17084 43.3046 4.84957 44 6.6 44H33C34.7504 44 36.4292 43.3046 37.6669 42.0669C38.9046 40.8292 39.6 39.1504 39.6 37.4V11C39.6 9.24957 38.9046 7.57084 37.6669 6.3331C36.4292 5.09536 34.7504 4.4 33 4.4H30.426C29.9706 3.11284 29.1273 1.99853 28.0123 1.21053C26.8973 0.42253 25.5654 -0.000393642 24.2 2.74924e-07H15.4ZM11 17.6C10.4165 17.6 9.85695 17.8318 9.44436 18.2444C9.03179 18.6569 8.8 19.2165 8.8 19.8C8.8 20.3835 9.03179 20.9431 9.44436 21.3556C9.85695 21.7682 10.4165 22 11 22H28.6C29.1835 22 29.7431 21.7682 30.1556 21.3556C30.5682 20.9431 30.8 20.3835 30.8 19.8C30.8 19.2165 30.5682 18.6569 30.1556 18.2444C29.7431 17.8318 29.1835 17.6 28.6 17.6H11ZM11 26.4C10.4165 26.4 9.85695 26.6318 9.44436 27.0444C9.03179 27.4569 8.8 28.0165 8.8 28.6C8.8 29.1835 9.03179 29.7431 9.44436 30.1556C9.85695 30.5682 10.4165 30.8 11 30.8H19.8C20.3835 30.8 20.9431 30.5682 21.3556 30.1556C21.7682 29.7431 22 29.1835 22 28.6C22 28.0165 21.7682 27.4569 21.3556 27.0444C20.9431 26.6318 20.3835 26.4 19.8 26.4H11Z" fill="#312121"/>
</svg>
